<svg xmlns="http://www.w3.org/2000/svg" viewBox="0 0 2048.9 573.3"><path d="M6.2,147.6a11.5,11.5,0,0,1,15.5,4.1c3.2,5.5,1,12-4.1,15.5l-.4.3,4.1-15.6c-1-.7-.9-.6.2.4l1.6,1.6c1.2,1.2,2.3,2.5,3.4,3.8s4.8,5.9,7,8.4c5.5,6.3,10.1,13.1,14.8,20,9.4,14,14.1,25.3,21.8,41.1a502,502,0,0,1,20.6,48.4c2.7,7.5,5.4,15.4,6.8,23.3.7,5.5.8,6.5.4,2.7l.4,1.7c.7,2.1,1.4,4.4,1.9,6.5,2,9.3-1.2,16.8-9,22.4-5.5,4-16.3,2.7-20.6-2.7s-5.5-9.2-7-14.8a42.1,42.1,0,0,1-1.2-4.8c-.3-2-.6-4.1-.8-6.2.4,2.6.2,2.8-.3.6s-1.7-6.8-2.6-10.1-2.9-8.3-4.3-12.4c-2.6-7.7-4.8-15.5-7.7-23.1,0,0-2.1-5.3-1-2.7l-2.6-5.7c-1.9-4.3-3.9-8.6-5.6-13l-1.8-4.7c1.3,3.4-2.4-5.7-2.7-6.5-1.4-3.5-3-6.9-4.2-10.5l-.9-3c.6,1,.6,1.1.1.1s-2.2-5-3.2-7.4c.6,1.3-1.2-2.9-1.2-2.8-1-2.2-2-4.4-2.9-6.6-2.4-6-5.9-11.8-8.9-17.8S3,167.7.5,160.7c-1.7-4.7,1.2-10.5,5.2-12.8l.5-.3Zm25.3,38.6c-1.9-4.1,2-11.4,4.2-14.9a80,80,0,0,1,8.5-10.9c6.1-6.8,13.4-13.6,21.3-18.2S81,132.1,90.2,131.5a24.3,24.3,0,0,1,11,1.8l5.2,2.5c.3.2,2.4,1.6.6.3a29.6,29.6,0,0,1,2.6,2.4c.5.6,2.3,3.1.8.8l1.6,2.5c.3.5,1.3,2.8.2.1.4,1,.7,2.1,1,3.1s1,4.5,1.4,6.8c-.7-3.9.3,2.6.5,4.3s.5,2.9.6,4.3c-.3-2.7.1.5.1.9s.3,3.3.4,4.9.3,5.2.4,7.8c.1,6.2,0,12.4-.2,18.5-.4,22.9-2.3,45.7-2.8,68.5,0,1.2.9,11.7.6,7.8a54,54,0,0,0,1.6,11.4,55.2,55.2,0,0,0,6.9,15.7c3,4.3,6.4,9.1,12.4,7.6s7-6.5,9.2-10.8a60.5,60.5,0,0,0,5.2-17.6c-.1.5,1.1-6.8.4-3.4.2-1.3.7-2.4.9-3.7.7-4.3,1-8.6,1.5-12.9,1.1-11,1.2-22.2,1.5-33.2.7-24,.6-48.1-4.3-71.7-2.3-11-6.4-21.7-14.3-30s-17.4-12.1-27.9-14.1c-12.7-2.4-25.7.6-37.1,6.3s-21.1,12-29.4,20.3-16.1,16.6-18,28c-.9,5.3.2,11.5,1.5,16.7s.9,8.2,4.1,11.2a2,2,0,0,0,3.1-2.4Zm115.2-52.9-.3-.4,1.1,8.7.2-.6-3,5.1c1.2-1.5-.4.2-.7.4l1.6-.8c2.3-1.3,4.2-3.6,6-5.4L161.8,130c1.4-1.3,2.8-2.8,4.3-4-1.6,1.2.5-.3.8-.4L170,124a22,22,0,0,1,4.3-1.6l3.2-1c4.4-1.4-1.3,0,1.5-.4a77,77,0,0,1,13.6-.4c2.8.1-2-.5.9,0l3.4.8,2.4.8,2.5.9,3.1,1.4c1.5.5,1,1.5,0-.5.4.8,1.1,2.2-.1-.4.3.7.8,1.4,1.1,2.1-1.4-2.7-.5,0,.1,1.5s.1-2.9-.1-.6.1,2.1.1,3.2a82.5,82.5,0,0,1-.5,11.1c.3-3.2-.7,3.7-.8,4.3l-1.5,8.3c-2,9.7-3.5,18.9-6.6,28.3s-5,19.6-8,29.3-6.1,19.1-8.7,28.9a182,182,0,0,0-5.7,35.2,50.1,50.1,0,0,0,.3,11.6c.5,2.6,1.5,5,2.2,7.7a28.6,28.6,0,0,0,3.2,8.4c1.5,2.4,3.7,4.1,5.3,6.3s5.2,2.6,7.2,0a47.2,47.2,0,0,0,4.4-6.3c1.3-2.5,1.9-5.1,3.2-7.5a152.5,152.5,0,0,0,7.5-17.6c3.8-10.9,8.1-21.8,11.5-33s7.4-22.5,10.4-33.9,6.8-22.3,8.8-33.6c.7-4.1,1-8.2,1.5-12.3-.1.8-.6,3.5.1-.4l.6-3.7a123.3,123.3,0,0,0,1.8-21.8c-.4-10.2-2.4-21.2-8-29.9C221,89,189.2,84.1,167.4,90.9A66.7,66.7,0,0,0,132.8,115c-4.7,6.2-9.3,14.3-7.7,22.4.6,3,.1-.7,0-1s.1,3.3.4,4.6c1.1,4,4.5,7.8,8.7,8.5s8.7-.1,11.6-4,3.5-8.7.9-12.2ZM247.1,234.7c-3.9-2-8.4.9-11.5,3-7.1,4.8-9.8,13.3-12.6,21-4.7,13-8.9,31.1-.1,43.4,10.4,14.7,33,2.5,42.4-7.5a45.4,45.4,0,0,0,7.6-10.9c1.8-3.6,2.6-7.4,4.5-11,3.8-7.2,5-14.7,2.9-22.7v3.9a9,9,0,0,0,0-5.4c-1.4-6-8.1-7.6-13.1-5.3-2.6,1.3-3.6,3.4-4.8,5.9q-.3,1.1.3-.6a22.2,22.2,0,0,0-1.8,3.8c-1.5,4.7-1.3,10.7-.8,15.5.9,10,3.8,21,4.8,29.4,1.3,10.5,2.2,17.1,2.3,28.3,0,2.6,0,5.2-.2,7.8l-.3,3.8q.4-2.4-.3.9c-.2.7-2.7,7.2-1,3.6-1,2-2.1,4-3.3,5.9s-1.3,2-2,2.9-1.4,2,.3-.2c-.1.8-3.7,3.7-4.4,4,2.3-1.9,2.6-2,.7-.6l-2.6,1.9-2.6,1.6c2.9-1.2,3.1-1.5.6-.8s-4.9,1.3-7.1,1.9c-4.7,1.4,4,.1-1.3.3-2.4.1-4.8.2-7.2.1s-2.3-.1-3.4-.3c3.3.5,3.7.6,1,.2a119.9,119.9,0,0,1-13.2-3l-3.1-1.2c3,1.3,3.3,1.4,1,.4l-6.1-2.9c-3.3-1.5-6.6-2.8-10-4.1-1.1-.4-5.4-1.2-6-2,2.5,1.1,2.7,1.2.6.2l-2.9-1.5c-6.4-3.2-11.9-3.2-18.6-1l11,2.9-.9-.9c-7-6.6-17.6-1.6-18.3,7.6v1.3l1.6-5.7c-.7,1.1-1.3,2-2,2.9-5.7,7.6-2,17.8,3.1,24.2s12.4,11.8,20.1,16.1,16.3,8.9,25.3,10.8c19.5,4.3,44.6,4.9,61.2-7.9,7.3-5.6,13.4-12.2,17.1-20.6s7.4-18.9,8.4-29.5c1.8-18.3-1.3-35.9-5.6-53.6-2.2-9.2-6-17.9-8.6-27s-5.9-21.9-16.5-21.9l6.8,2.8-.4-.3-1.8,14,.5-.3-4.1,1.1h.5l-7.1-5.5a16.7,16.7,0,0,1-.8,12.6c-2.2,4.7-8.5,7.4-12.3,10.8a86.6,86.6,0,0,1-11.5,9.3c-.7.5-5.1,2.8-5.1,3.2s-.5.9,1.1,1-.4-.7-.4-1.1c0,1.1-.2-1-.2-1.3s-.4-2.4-.5-3.7-.3-4.8-.2-7.1c.2-4.4,2.2-9.3,3.5-13.5s4-9.8,5.6-14.8c.3-.9.8-9.6,1.9-10.2a2.6,2.6,0,0,0,0-4.4Zm-4.5-7.8a12.8,12.8,0,0,0,6.4-1.4,14.8,14.8,0,0,0,8.7-8.7,12.6,12.6,0,0,0,1.4-6.3l-.6-4.4a17.3,17.3,0,0,0-4.2-7.3l-3.4-2.6a16.9,16.9,0,0,0-8.3-2.2,18.2,18.2,0,0,0-11.6,4.8,13.1,13.1,0,0,0-3.4,5.3,12.8,12.8,0,0,0-1.4,6.4l.6,4.3a16.3,16.3,0,0,0,4.2,7.3l3.3,2.6a17.5,17.5,0,0,0,8.3,2.2Zm34.2-34.8h0a18.7,18.7,0,0,0-8.8,0,17.2,17.2,0,0,0-7.4,4.3h0a11.9,11.9,0,0,0-3.4,5.4,7.9,7.9,0,0,0-1.2,4.2,12.4,12.4,0,0,0,.3,6.6l1.7,4,2.6,3.4a12.8,12.8,0,0,0,5.4,3.4,8.9,8.9,0,0,0,4.2,1.2,14.8,14.8,0,0,0,6.6-.3l4-1.7,3.3-2.6a12.1,12.1,0,0,0,3.5-5.4,8.8,8.8,0,0,0,1.1-4.2,12.4,12.4,0,0,0-.3-6.6l-1.6-4-2.7-3.4a15.8,15.8,0,0,0-7.3-4.2Zm18,34.7c-3.7,3.6-3.7,9.7-4.1,14.6s1.2,12.5,2.1,18.5c1.6,10.8,3,21.7,8.2,31.4,3.9,7.3,17.1,8.4,20.7,0s2.4-14.2.8-21.8-2.5-12.3-4.5-18.4-3.9-12.7-6.7-18.5S301,221,294.8,226.8Zm10.9,26c3-2.3,5.1-5,7.6-7.8s2.7-3.8,4.1-5.6.5-.7,0,.1.1.4,1.4-.7a9.8,9.8,0,0,1,7.5.1c-2-.7,1.1,1.4-.6-.3s.7,1.2.7,1.4c3.4,8.2,2.7,18.5,2.8,27.2a66.5,66.5,0,0,0,1.2,13.3c.9,4.3,4.1,7,6.6,10.4s4.3,2.2,5.7,0a68.2,68.2,0,0,0,6.5-12.7c2.4-6.2,2.3-14.2,2.8-20.9.9-12.1.3-27.9-8.5-37.3s-26.2-10-37.6-3.4-18.2,21.4-12.1,33.1c1.9,3.8,8.3,5.9,11.9,3.1Z" transform="translate(0 -44.6)" style="fill:#ff931e"/><path d="M410.2,353.5a7.7,7.7,0,0,1,1.8,13.9,3.8,3.8,0,0,0-1.3.9l-1.9-14.7.3.2-4.8-1.3c.4-.1,1,.1,1.5-.1s-2.4.4.5,0a26,26,0,0,1,5.6-.6c1.7,0-.4,0-1,.2l4.1-1a41.4,41.4,0,0,0,5.9-2.1c8.5-3.5,15.1-10,22.1-15.7l-2.6,9.8-.6-2c-2.2-6.4,1.4-14.1,7-17.4s13.2-1.9,18.7,2.5,11.9,12.8,16.8,19.7a58.8,58.8,0,0,1,6,10.7c1.2,2.7,2.3,5.5,3.5,8.4l1.3,3.3,1.4,3.4c6.9,16.8,9.3,36.2,10.8,54.2a154.9,154.9,0,0,1,.1,23.6c-.5,7.8,0,15.4-.9,23.2a492.8,492.8,0,0,1-8,51.3c-3.7,16.9-8,34-16.4,49.3A137.1,137.1,0,0,1,464.6,595a54.3,54.3,0,0,1-10.3,9.4c-.6.5-4.8,3.9-2.6,1.7s-3.5,2.7-3.4,2.7l-1.9,1.3c-8,5-18.8,7.3-28,7.7s-19.3-2.5-28.4-6.6c-16.3-7.3-26-24.3-31.7-40.4a73.8,73.8,0,0,1-4.4-26.3c.4-10.1,3.6-17.9,7.1-27.2,1.2-3.3,2.1-6.7,3.4-10a45.4,45.4,0,0,1,5.8-10.3c4.5-6.6,9.1-13.3,13-20.3,2.4-4.4,8.6-1.2,7.7,3.3-1.6,7.4-4.4,15.4-4.6,23s-1.4,15.1-1.1,22.7c.6,16,.5,26,10.4,39-2.3-3.2,1.1.6,1.4.9s2.4,2.3,3.5,3.5c3.6,3.6-3.1-1.8,1.3,1.1.7.4,3.6,2.9,4.3,2.7s-4.8-1.5-.6-.3l4.5,1.3c1.4.3,3.4,1.1,4.8,1-5.5.3,0-.2,1-.2h1.7c2.5-.2,2.3-.2-.7.1.8.4,4-1,4.8-1.3l3.1-1.1-2.5,1.1c.3-.4,2.2-1.1,2.7-1.5s7.3-4.1,7.5-5.1c-2.4,2-2.8,2.2-1,.6l1-1.1c.7-.8,1.4-1.7,2.2-2.5s1.5-1.6,2.2-2.5c-1.6,2.3-1.7,2.4-.1.3s2.2-3.1,3.2-4.7,3.3-5,4.8-7.6,3.3-6.3,4.8-9.6l1.1-2.4c-1.2,2.8,1.1-2.6,1-2.5a332.6,332.6,0,0,0,13.1-41.1c1.9-7.3,3.4-14.7,4.6-22.1.4-1.8.6-3.7.9-5.6,1-5.8.1,1.8.3-1.6s.5-6.4.6-9.7c.2-7.2.6-14.2,0-21.4a142.4,142.4,0,0,0-2.4-17.7A246.1,246.1,0,0,0,458.1,376c-1.2-3.3-2.1-6.8-3.5-10.1,1.5,3.6-.7-1-.9-1.4l-2.5-4.5-4.6-7.1c-1-1.3-2-2.7-2.9-4.1-1.7-2.9-2.5-2.5,1.3.2h10.2c-10,7.5-20.1,15.2-31.5,20.5-7.9,3.7-25.8,7-28.6-5.3-1.7-7.3,4.4-12.9,11.5-11.5l3.6.8Zm151,100a7.9,7.9,0,0,1-.5-2.8c.3-1.8.8-3.1.4-4.9-.9-5-5.2-8.1-9.9-8.8-8.8-1.2-17.1,5.1-21.3,12.4-8.7,15-15.2,31.7-9.8,49.2,2.4,7.9,8.2,15.3,16.3,17.8s16.7-.5,23.5-4.5A40.5,40.5,0,0,0,576,494.2c3.7-8,7.6-18,5.8-27a50.6,50.6,0,0,0-12.1-22.7c-4.1-4.1-11-9.8-16.5-4.2a2.7,2.7,0,0,0-.4,3.3c.9,1.4.8,3.3,1.4,4.8a42.7,42.7,0,0,0,3.3,6.8c2.9,5,5.7,11.2,6.3,17,1,11.3-6.1,24.4-17.4,27-4.6,1-7.3-1.7-8.3-6.3s-2.2-12.8-.9-18.7,4.2-12.2,8.5-16.4c.9-.8,2.1-1.2,2.9-2.1l1.5-1c-1.4,0-1.3.1.2.2a14,14,0,0,0,5.4-.5,6.3,6.3,0,0,0,2.3-.8c-1.4.6-1.4,1.2-.1,1.8a2,2,0,0,0,3.3-1.9Zm37.6-15.9h.2c1.2-.1,1.1-2.1,0-2.4h-.5a2.4,2.4,0,0,0-2.6,1.1c-3.4,5.9-4.5,13.2-6.5,19.6s-5.3,14.2-5,22.3c.5,9.8,2.7,28.7,16.3,28.2,3.2-.1,5.6-1.6,8.3-2.9s6.3-2.4,9-4.8c5.6-5.2,8.9-12.3,12-19,1.8-3.9,3.5-7.7,5-11.7s1.8-8.4,2.8-12.7c1.9-7.8,2.4-18.7-5.7-23.3a9.2,9.2,0,0,0-12.2,3.2c-1.6,2.7-1.5,5.4-2,8.3s-1.3,4.5-1.9,6.7c-1.6,6.5-1.8,13-2.9,19.4a57.2,57.2,0,0,1-5.4,16.2,33.7,33.7,0,0,1-3.6,6.1c-.7.8-1.7,1.3-2.4,2.1s-.8.6-.6.7c-1.4-.6-2.1-6.7-2.4-8.5-.7-5.7-1.5-11.4-2.1-17.1a55.6,55.6,0,0,1,1.2-20.3c.6-2.4.8-4.8,1.3-7.3s1.4-3.5.7-5.3l-1.5,1.5Zm19.4,0c-3.7,5.2,0,10.2.4,15.8s-2,12-2.9,17.8-.9,13,1.4,19.1c3.8,10,15.6,18.8,26.4,12.7a14.7,14.7,0,0,0,3-23.4,37.8,37.8,0,0,0-4.1-2.9c1.4,1-3.9-4.1-1.9-1.5s-.9-1.5-1-1.6a13.3,13.3,0,0,1-1.1-2.4c-1.9-5.1-4.3-11.8-4.6-17.2-.1-3.2.6-6.3.3-9.6.1,1.7,0-1.7,0-1.6a13.5,13.5,0,0,0-1.5-5.2c-3-6.1-11.1-4.7-14.4,0Zm44.5-8.7a.4.4,0,1,0,0-.8.4.4,0,0,0,0,.8Zm-2.3-2.2c-4.5,2-3.6,9-4.2,13.1s-1.4,5.9-1.9,8.9-.6,6.7-1.4,9.9c-1.7,7-3.7,13.7-1.5,20.8a26.9,26.9,0,0,0,5.9,9.9,37.4,37.4,0,0,0,8.4,6.5c4.1,2.4,8,4.2,12.9,2.8a11.6,11.6,0,0,0,5.4-3,6.2,6.2,0,0,0,1.7-2.2c.9-2.7,1.2-3.2,1-1.6,4.4-4.9,8.5-10.7,10.5-17s1-15.3,1.5-22.8,1.1-14.8-5-19.3a3.6,3.6,0,0,0-4,0c-3.7,2.7-4.4,6.5-5.3,10.9s-2.6,8.2-4.3,12.2a111.2,111.2,0,0,0-5.6,14.5,41.7,41.7,0,0,0-1.8,6.3,29.7,29.7,0,0,0-.6,4.3c-.4,2.2,0,1.9,1-1l7.3-.9-.6-.2,5.9,4.6c-2-2.8-3.6-5.5-6.6-7.4s-5.2-1.5-7.2-3.2-5.3-9.9-6.3-14.2-.5-11.4-.3-17,1.4-9.6-.6-13.8c-.8-1.6-2.8-1.8-4.3-1.1Zm30.1,21.6c-2.9,1.1-3.5,3.6-4,6.5a69,69,0,0,0-1.2,15.1c.7,10.1,6.2,22.3,15,27.8,10.6,6.6,23.7.9,31.2-7.8s10.8-18.7,12.9-29.4a69.6,69.6,0,0,0-2.9-35.9c-3.4-8.9-14.6-25-26.1-18.2s-5.7,21.9-2.8,31.6a74,74,0,0,1,3,13.8c-.1-1.8,0,1.2,0,1.2,0,5.6.1-.8-.1,2.1s-.5,3.7-.7,5.5-.4,3.5-.1,1.7a33.3,33.3,0,0,1-2.6,8.1l-.8,1.7c-1.2,3.2.4.2-1.2,2s-.8.8-.4.5c-1.4.7-1.8.9-1,.8a9.8,9.8,0,0,1,4.5.2c.1-.5-3-4.5-3.6-5.2-3.1-3.6-6.8-6.7-9.7-10.4a45.4,45.4,0,0,1-4.1-6.3c-1-1.5-1.5-3.6-2.9-4.8a2.2,2.2,0,0,0-2.4-.6Z" transform="translate(0 -44.6)" style="fill:#ff931e"/><path d="M885.8,391.6c42.5-1.3,102.3-3.2,105.3,34.9,3.6,43.4-45.3,57.7-98.7,62.1s-98,1.3-107.5-45.3l62.1-5.1c7.7,11.2,23.7,13,42.2,11.5s40.8-6.4,39.9-18.2c-.6-6.6-19.1-6.1-43-5.3-42.6,1.3-102.4,3.2-105.4-34.8-3.5-43.4,45.4-57.9,98.7-62.2s98-1.6,107.5,45.4l-62.1,5.1c-7.7-11.5-23.7-13-42.2-11.5s-40.8,6-39.8,18.1C843.3,393,861.8,392.4,885.8,391.6Z" transform="translate(0 -44.6)" style="fill:#ff931e"/><path d="M1067.4,470.8,1059,367l-70.4,5.8-3.9-48.2,200-16.3,4,48.2-70.5,5.7,8.5,103.8Z" transform="translate(0 -44.6)" style="fill:#ff931e"/><path d="M1350.9,294.7c31.3-2.9,60,21.3,62.1,52.8a56.2,56.2,0,0,1-6.6,31.8,57.3,57.3,0,0,1-22.3,22.7l36.6,40-63.1,5.1L1326,412.3l-52.9,4.4,3,37-59.2,4.8-12.4-151.9Zm-83.5,51.5,2.1,25.9,72.2-5.9a12.8,12.8,0,0,0,12-13.9,13.2,13.2,0,0,0-14.1-12Z" transform="translate(0 -44.6)" style="fill:#ff931e"/><path d="M1494.4,283.2l70.4-5.8,93.9,145.3-66.7,5.5-14.1-25.1-76.1,6.2-9.9,27-66.7,5.4Zm21.6,87.6,41.7-3.4-24.5-43.1Z" transform="translate(0 -44.6)" style="fill:#ff931e"/><path d="M1732.3,263.8l70.5-5.7,93.8,145.3-66.7,5.4-14.1-25-76,6.2-9.9,26.9-66.7,5.5Zm21.6,87.7,41.7-3.4-24.4-43.2Z" transform="translate(0 -44.6)" style="fill:#ff931e"/><path d="M1927.7,400.8l-8.4-103.7-70.4,5.7-4-48.2L2045,238.4l3.9,48.1-70.4,5.8L1987,396Z" transform="translate(0 -44.6)" style="fill:#ff931e"/><path d="M499.4,170.4c42.1-.3,101.2-.9,103.3,36.8,2.5,43-46.1,56-98.9,59.2s-96.8-.8-105.1-47.2l61.4-3.6c7.4,11.3,23.1,13.4,41.4,12.3s40.5-5.4,39.8-17.1c-.4-6.6-18.7-6.5-42.4-6.2-42,.3-101.1.9-103.2-36.7-2.6-42.9,46-56.1,98.8-59.2s96.8.5,105.2,47.2l-61.4,3.6c-7.5-11.4-23.2-13.3-41.5-12.2s-40.4,5-39.7,17C457.4,170.9,475.7,170.7,499.4,170.4Z" transform="translate(0 -44.6)" style="fill:#ff931e"/><path d="M677.1,252.7,671,150l-69.7,4.1-2.8-47.6,198-11.7,2.8,47.6-69.7,4.1,6.1,102.7Z" transform="translate(0 -44.6)" style="fill:#ff931e"/><path d="M960.9,85c30.9-2.2,58.7,22.3,60.1,53.5a54.2,54.2,0,0,1-7.2,31.2,56,56,0,0,1-22.5,22l35.2,40.3-62.4,3.6-30.4-35-52.4,3.1,2.2,36.7-58.6,3.4L816,93.5Zm-83.7,49,1.5,25.6,71.5-4.2a12.8,12.8,0,0,0,12.1-13.5,12.9,12.9,0,0,0-13.6-12.1Z" transform="translate(0 -44.6)" style="fill:#ff931e"/><path d="M1102.8,76.7l69.7-4.1,89.4,145.6-65.9,3.9-13.4-25-75.3,4.4L1097,227.9l-66,3.9Zm19.4,87.1,41.2-2.4-23.2-43.2Z" transform="translate(0 -44.6)" style="fill:#ff931e"/><path d="M1338.2,62.9l69.7-4.1,89.5,145.5-66,3.9-13.4-25-75.3,4.4L1332.4,214l-66,3.9Zm19.4,87,41.2-2.4-23.2-43.2Z" transform="translate(0 -44.6)" style="fill:#ff931e"/><path d="M1528.1,202.5,1522,99.8l-69.6,4.1-2.8-47.6,197.9-11.7,2.8,47.7-69.7,4.1,6.1,102.6Z" transform="translate(0 -44.6)" style="fill:#ff931e"/></svg>