<svg xmlns="http://www.w3.org/2000/svg" viewBox="0 0 2048.9 573.3"><path d="M166.9,125.6,170,124a22,22,0,0,1,4.3-1.6l3.2-1,.9-.3h.6a77,77,0,0,1,13.6-.4h.9l3.4.8,2.4.8c0-.1,2.9,1.1,3.1,1.1a19.2,19.2,0,0,0,2.5,1.2h.3a6.6,6.6,0,0,0,.7,2.3c0,1,.1,1.9.1,2.9a92.1,92.1,0,0,1-.4,10.5c0-1.3-.8,4.4-.9,4.9l-1.5,8.3c-2,9.7-3.5,18.9-6.6,28.3s-5,19.6-8,29.3-6.1,19.1-8.7,28.9a182,182,0,0,0-5.7,35.2,50.1,50.1,0,0,0,.3,11.6c.5,2.6,1.5,5,2.2,7.7a28.6,28.6,0,0,0,3.2,8.4c1.5,2.4,3.7,4.1,5.3,6.3s5.2,2.6,7.2,0a47.2,47.2,0,0,0,4.4-6.3c1.3-2.5,1.9-5.1,3.2-7.5a152.5,152.5,0,0,0,7.5-17.6c3.8-10.9,8.1-21.8,11.5-33,2.8-9.2,5.9-18.3,8.6-27.6a16.6,16.6,0,0,0,3.4,4.9l3.3,2.6a17.5,17.5,0,0,0,8.3,2.2,12.8,12.8,0,0,0,6.4-1.4,14.8,14.8,0,0,0,8.7-8.7c.1-.2.1-.4.2-.6v.3l2.6,3.4a12.8,12.8,0,0,0,5.4,3.4,8.9,8.9,0,0,0,4.2,1.2,14.8,14.8,0,0,0,6.6-.3l4-1.7,3.3-2.6a12.1,12.1,0,0,0,3.5-5.4,8.8,8.8,0,0,0,1.1-4.2,12.4,12.4,0,0,0-.3-6.6l-1.6-4-2.7-3.4a15.8,15.8,0,0,0-7.3-4.2h0a18.7,18.7,0,0,0-8.8,0,17.2,17.2,0,0,0-7.4,4.3h0a11.9,11.9,0,0,0-3.4,5.4l-.3.6a17.7,17.7,0,0,0-2.6-3.5c-1.2-.8-2.3-1.7-3.4-2.6a16.9,16.9,0,0,0-8.3-2.2,12.4,12.4,0,0,0-6.3,1.4,15.5,15.5,0,0,0-2.9,1.4,197.9,197.9,0,0,0,4.8-19.5c.6-3.8.9-7.6,1.4-11.5a7.4,7.4,0,0,1,.2-1.2l.6-3.7a123.3,123.3,0,0,0,1.8-21.8c-.4-10.2-2.4-21.2-8-29.9C221,89,189.2,84.1,167.4,90.9A66.7,66.7,0,0,0,132.8,115l-1.3,1.8c-6.9-5.7-15.4-9-24.2-10.7-12.7-2.4-25.7.6-37.1,6.3s-21.1,12-29.4,20.3c-6.5,6.6-13.3,13.7-16.5,22.5l-1.2-1.3-.7-.7a10.1,10.1,0,0,0-.7-1.5,11.5,11.5,0,0,0-15.5-4.1l-.5.3c-4,2.3-6.9,8.1-5.2,12.8,2.5,7,8.1,10.8,11.3,17.4s6.5,11.8,8.9,17.8c.9,2.2,1.9,4.4,2.9,6.6,0-.1,1.8,4.1,1.2,2.8,1,2.4,2.2,4.9,3.2,7.4s.5.9-.1-.1l.9,3c1.2,3.6,2.8,7,4.2,10.5.3.7,3.1,7.7,3,7.3l1.5,3.9c1.7,4.4,3.7,8.7,5.6,13,.8,1.7,1.5,3.3,2.2,5l1.4,3.4c2.9,7.6,5.1,15.4,7.7,23.1,1.4,4.1,3,8.2,4.3,12.4s1.3,6.9,2.6,10.1.6,2,.4.5c.2,1.7.5,3.4.7,5.1a42.1,42.1,0,0,0,1.2,4.8c1.5,5.6,3.3,10.2,7,14.8s15.1,6.7,20.6,2.7c7.8-5.6,11-13.1,9-22.4-.5-2.1-1.2-4.4-1.9-6.5l-.4-1.7c.4,3.8.3,2.8-.4-2.7-1.4-7.9-4.1-15.8-6.8-23.3a502,502,0,0,0-20.6-48.4c-7.7-15.8-12.4-27.1-21.8-41.1-3.7-5.6-7.5-11-11.7-16.2a98.8,98.8,0,0,1,7.6-9.5c6.1-6.8,13.4-13.6,21.3-18.2S81,132.1,90.2,131.5a24.3,24.3,0,0,1,11,1.8l5.2,2.5,1.2.8,2,1.9,1.4,1.7a14,14,0,0,0,1,1.6l.6,1.2.6,2a57.8,57.8,0,0,1,1.2,5.7c-.2-1,.5,4,.7,5.4s.4,2.4.5,3.6a13.7,13.7,0,0,1,.2,1.6c.2,1.6.3,3.3.4,4.9s.3,5.2.4,7.8c.1,6.2,0,12.4-.2,18.5-.4,22.9-2.3,45.7-2.8,68.5,0,1.2.9,11.7.6,7.8a54,54,0,0,0,1.6,11.4,55.2,55.2,0,0,0,6.9,15.7c3,4.3,6.4,9.1,12.4,7.6s7-6.5,9.2-10.8a60.5,60.5,0,0,0,5.2-17.6c-.1.4.7-4.3.6-4.3s.5-1.8.7-2.8c.7-4.3,1-8.6,1.5-12.9,1.1-11,1.2-22.2,1.5-33.2.7-24,.6-48.1-4.3-71.7A62.3,62.3,0,0,0,148,144c1.3-1.2,2.5-2.5,3.6-3.7L161.8,130c1.2-1.2,2.4-2.4,3.7-3.5Zm38.6-.6h0l-.2-.3h-.1l-.4-1,.5,1.1C206,125,206,125.4,205.5,125ZM21.3,151.9v.2C20.4,151.3,20.4,151.3,21.3,151.9Zm184-27.3h0l.2.3h0C205.4,124.8,205.3,124.7,205.3,124.6ZM288.1,264c-2.3-8.1-5.9-21.9-16.5-21.9h.2a10.9,10.9,0,0,0-4.6,1c-2.5,1.2-3.5,3.2-4.6,5.6,0-.1.1-.2.1-.3a22.2,22.2,0,0,0-1.8,3.8c-1.5,4.7-1.3,10.7-.8,15.5.1,1.3.2,2.6.4,3.9-2.5,2-5.4,3.7-7.6,5.6a86.6,86.6,0,0,1-11.5,9.3c-.5.4-3.3,1.8-4.5,2.7a3.9,3.9,0,0,1-.1-.9c-.2-1.3-.4-2.4-.5-3.7s-.3-4.8-.2-7.1c.2-4.4,2.2-9.3,3.5-13.5s4-9.8,5.6-14.8c.3-.9.8-9.6,1.9-10.2a2.6,2.6,0,0,0,0-4.4c-3.9-2-8.4.9-11.5,3-7.1,4.8-9.8,13.3-12.6,21-4.7,13-8.9,31.1-.1,43.4,10.1,14.3,32,3,41.7-6.8l.3,1.9c1.3,10.5,2.2,17.1,2.3,28.3,0,2.6,0,5.2-.2,7.8-.1,1-.1,2-.2,3s-.2.9-.4,1.7-2.2,5.9-1.4,4.4c-.9,1.8-1.9,3.5-2.9,5.1s-1.3,2-2,2.9l-.8,1.1a17.6,17.6,0,0,1-3.3,2.7c2.3-1.9,2.6-2,.7-.6l-2.6,1.9-.8.5-1.2.3c-2.3.4-4.9,1.3-7.1,1.9l-.9.3h-.4c-2.4.1-4.8.2-7.2.1l-2.8-.2c-4.3-.9-8.6-1.6-12.8-2.9l-2-.8h-.1l-6.1-2.9c-3.3-1.5-6.6-2.8-10-4.1-1.1-.4-5.4-1.2-6-2,2.5,1.1,2.7,1.2.6.2l-2.9-1.5a21.3,21.3,0,0,0-14.9-2,11.1,11.1,0,0,0-11.2,7.4l-1.2,1.7c-5.7,7.6-2,17.8,3.1,24.2s12.4,11.8,20.1,16.1,16.3,8.9,25.3,10.8c19.5,4.3,44.6,4.9,61.2-7.9,7.3-5.6,13.4-12.2,17.1-20.6s7.4-18.9,8.4-29.5c1.8-18.3-1.3-35.9-5.6-53.6C294.5,281.8,290.7,273.1,288.1,264Zm-28.6,87.4.9-1.2A3.2,3.2,0,0,1,259.5,351.4Zm84-131.4c-9.6-10.1-26.2-10-37.6-3.4a29.2,29.2,0,0,0-9.3,8.9,10.2,10.2,0,0,0-1.8,1.3c-3.7,3.6-3.7,9.7-4.1,14.6s1.2,12.5,2.1,18.5c1.6,10.8,3,21.7,8.2,31.4,3.9,7.3,17.1,8.4,20.7,0s2.4-14.2.8-21.8-2.5-12.3-4.5-18.4c-.9-2.8-1.8-5.7-2.8-8.6.8-1,1.5-2.1,2.2-3.1s.5-.7,0,.1.1.4,1.4-.7a10,10,0,0,1,6.6-.2l1,1.4c3.4,8.2,2.7,18.5,2.8,27.2a66.5,66.5,0,0,0,1.2,13.3c.9,4.3,4.1,7,6.6,10.4s4.3,2.2,5.7,0a68.2,68.2,0,0,0,6.5-12.7c2.4-6.2,2.3-14.2,2.8-20.9C352.9,245.2,352.3,229.4,343.5,220Zm-17.7,18.7h0Z" transform="translate(0 -44.6)" style="fill:#fff"/><path d="M494.5,371.6c-2.2-5.5-2.3-5.8-2-4.9l-.7-1.8c-1.2-2.9-2.3-5.7-3.5-8.4a58.8,58.8,0,0,0-6-10.7c-4.9-6.9-10.2-14.4-16.8-19.7s-12.3-6.2-18.7-2.5a16.3,16.3,0,0,0-7.6,12.8c-5.7,4.8-11.4,9.7-18.3,12.5A41.4,41.4,0,0,1,415,351l-3.4.8a23.3,23.3,0,0,0-5.3.6h-1.2a2.1,2.1,0,0,0-.8,0h.1a9.3,9.3,0,0,0-9.3,11.7c2.8,12.3,20.7,9,28.6,5.3s16.4-9.3,24-14.9c1.2,1.8,2.4,3.6,3.5,5.4l2.5,4.5a21.5,21.5,0,0,0,1.4,2.7c1.1,2.9,2,5.9,3,8.8a246.1,246.1,0,0,1,10.6,39.6,142.4,142.4,0,0,1,2.4,17.7c.6,7.2.2,14.2,0,21.4-.1,3.3-.5,6.5-.6,9.7a1.1,1.1,0,0,0-.1.5,5.2,5.2,0,0,1-.2,1.1c-.3,1.9-.5,3.8-.9,5.6-1.2,7.4-2.7,14.8-4.6,22.1a332.6,332.6,0,0,1-13.1,41.1l-1.1,2.8c-.5.9-1,2.2-1,2.1q-2.2,4.9-4.8,9.6c-1.5,2.6-3.1,5.2-4.8,7.6s-2.1,3.1-3.2,4.7-1.5,2,.1-.3c-.7.9-1.5,1.7-2.2,2.5s-1.5,1.7-2.2,2.5l-1,1.1c-1.8,1.6-1.4,1.4,1-.6-.2,1-6.5,4.5-7.5,5.1l-2.1,1.1-1.2.4a25.2,25.2,0,0,1-3.1,1.1h-4.8c-1.3-.2-2.6-.7-3.7-.9l-4.5-1.3h-.4c-1.2-.7-2.8-2-3.3-2.3s-.5-.3-.6-.5l-.7-.6c-1.1-1.2-2.3-2.3-3.5-3.5s-3.2-3.5-1.8-1.6c-9.4-12.7-9.4-22.5-10-38.3-.3-7.6.9-15.2,1.1-22.7s3-15.6,4.6-23c.9-4.5-5.3-7.7-7.7-3.3-3.9,7-8.5,13.7-13,20.3a45.4,45.4,0,0,0-5.8,10.3c-1.3,3.3-2.2,6.7-3.4,10-3.5,9.3-6.7,17.1-7.1,27.2a73.8,73.8,0,0,0,4.4,26.3c5.7,16.1,15.4,33.1,31.7,40.4,9.1,4.1,18.3,7.1,28.4,6.6s20-2.7,28-7.7l1.9-1.3c-.1,0,6.6-5.8,3.4-2.7s2-1.2,2.6-1.7a54.3,54.3,0,0,0,10.3-9.4,137.1,137.1,0,0,0,15.5-21.8c8.4-15.3,12.7-32.4,16.4-49.3a492.8,492.8,0,0,0,8-51.3c.9-7.8.4-15.4.9-23.2a154.9,154.9,0,0,0-.1-23.6C503.8,407.8,501.4,388.4,494.5,371.6ZM442.4,347c-.2-.2-.2-.3,0,0Zm-37,225.7.7.2Zm11.4,2h1.5A2,2,0,0,1,416.8,574.7ZM405.4,352.5h0Zm164.3,92c-3.5-3.5-9-8.2-14-6a14.1,14.1,0,0,0-4.5-1.5c-8.8-1.2-17.1,5.1-21.3,12.4-8.7,15-15.2,31.7-9.8,49.2,2.4,7.9,8.2,15.3,16.3,17.8s16.7-.5,23.5-4.5A40.5,40.5,0,0,0,576,494.2c3.7-8,7.6-18,5.8-27A50.6,50.6,0,0,0,569.7,444.5Zm-23.3,54.7c-4.6,1-7.3-1.7-8.3-6.3s-2.2-12.8-.9-18.7,4.2-12.2,8.5-16.4c.9-.8,2.1-1.2,2.9-2.1l1.3-.8h.4a14,14,0,0,0,5.4-.5,2.7,2.7,0,0,0,1.2-.3h.1c-.2.4,0,.7.6,1,2.8,5.1,5.6,11.2,6.2,17C564.8,483.5,557.7,496.6,546.4,499.2Zm100.1-19.6a14.7,14.7,0,0,1-3,23.4c-8.6,4.9-17.9.3-23.2-6.9l-2.3,2.4c-2.7,2.4-5.8,3.3-9,4.8s-5.1,2.8-8.3,2.9c-13.6.5-15.8-18.4-16.3-28.2-.3-8.1,2.6-14.8,5-22.3s3.1-13.7,6.5-19.6a2.4,2.4,0,0,1,2.6-1.1h.5a1.2,1.2,0,0,1,.8.9h0c.7,1.8-.4,3.5-.7,5.3s-.7,4.9-1.3,7.3a55.6,55.6,0,0,0-1.2,20.3c.6,5.7,1.4,11.4,2.1,17.1.2,1.8.9,7.6,2.3,8.4l.7-.6c.7-.8,1.7-1.3,2.4-2.1a33.7,33.7,0,0,0,3.6-6.1,57.2,57.2,0,0,0,5.4-16.2c1.1-6.4,1.3-12.9,2.9-19.4.3-1.2.7-2.3,1.1-3.5-.7-3-1-5.9,1.1-8.9a4.3,4.3,0,0,1,1.1-1.2,8.4,8.4,0,0,1,.6-1.4,9.2,9.2,0,0,1,12.2-3.2c8.1,4.6,7.6,15.5,5.7,23.3-.8,3.1-1.1,6.1-1.8,9.2.8,2.4,1.6,4.8,2.4,6.9a13.3,13.3,0,0,0,1.1,2.4l.6.9c.4,0,2.9,2.5,2.5,2.4A39.5,39.5,0,0,1,646.5,479.6Zm97.9-19.1c-2.1,10.7-5.6,21-12.9,29.4s-20.6,14.4-31.2,7.8a30.1,30.1,0,0,1-9.7-10.6l-3.9,4.7c.2-1.6-.1-1.1-1,1.6a6.2,6.2,0,0,1-1.7,2.2,11.8,11.8,0,0,1-5.3,3c-5,1.4-8.9-.4-13-2.8a37.4,37.4,0,0,1-8.4-6.5,26.9,26.9,0,0,1-5.9-9.9c-2.2-7.1-.2-13.8,1.5-20.8.8-3.2.9-6.6,1.4-9.9s1.5-6,1.9-8.9-.3-11.1,4.2-13.1c1.5-.7,3.5-.5,4.3,1.1,2,4.2.7,9.3.6,13.8s-1,11.5.3,17,2.9,11.3,6.3,14.2a6,6,0,0,0,1.5.9c.3-1.1.7-2.3,1.1-3.4a111.2,111.2,0,0,1,5.6-14.5c1.7-4,3.5-7.9,4.3-12.2s1.6-8.2,5.3-10.9a3.6,3.6,0,0,1,4,0c6.1,4.5,5.5,12.5,5,19.3-.1,2.1-.1,4.1-.1,6.2l1.3,1.8c2.9,3.7,6.6,6.8,9.7,10.4l1.6,2.1c0-.2.1-.3.1-.4l.8-1.7a38.9,38.9,0,0,0,2.5-7.5c0-.2.2-1.9.2-2.3s.6-3.6.7-5.5a.9.9,0,0,0,.1-.5V453s-.1-2.1,0-1.7a75.3,75.3,0,0,0-3-13.3c-2.9-9.7-8.7-24.9,2.8-31.6s22.7,9.3,26.1,18.2A69.6,69.6,0,0,1,744.4,460.5Z" transform="translate(0 -44.6)" style="fill:#ff931e"/><path d="M885.8,391.6c42.5-1.3,102.3-3.2,105.3,34.9,3.6,43.4-45.3,57.7-98.7,62.1s-98,1.3-107.5-45.3l62.1-5.1c7.7,11.2,23.7,13,42.2,11.5s40.8-6.4,39.9-18.2c-.6-6.6-19.1-6.1-43-5.3-42.6,1.3-102.4,3.2-105.4-34.8-3.5-43.4,45.4-57.9,98.7-62.2s98-1.6,107.5,45.4l-62.1,5.1c-7.7-11.5-23.7-13-42.2-11.5s-40.8,6-39.8,18.1C843.3,393,861.8,392.4,885.8,391.6Z" transform="translate(0 -44.6)" style="fill:#fff"/><path d="M1067.4,470.8,1059,367l-70.4,5.8-3.9-48.2,200-16.3,4,48.2-70.5,5.7,8.5,103.8Z" transform="translate(0 -44.6)" style="fill:#fff"/><path d="M1350.9,294.7c31.3-2.9,60,21.3,62.1,52.8a56.2,56.2,0,0,1-6.6,31.8,57.3,57.3,0,0,1-22.3,22.7l36.6,40-63.1,5.1L1326,412.3l-52.9,4.4,3,37-59.2,4.8-12.4-151.9Zm-83.5,51.5,2.1,25.9,72.2-5.9a12.8,12.8,0,0,0,12-13.9,13.2,13.2,0,0,0-14.1-12Z" transform="translate(0 -44.6)" style="fill:#fff"/><path d="M1494.4,283.2l70.4-5.8,93.9,145.3-66.7,5.5-14.1-25.1-76.1,6.2-9.9,27-66.7,5.4Zm21.6,87.6,41.7-3.4-24.5-43.1Z" transform="translate(0 -44.6)" style="fill:#fff"/><path d="M1732.3,263.8l70.5-5.7,93.8,145.3-66.7,5.4-14.1-25-76,6.2-9.9,26.9-66.7,5.5Zm21.6,87.7,41.7-3.4-24.4-43.2Z" transform="translate(0 -44.6)" style="fill:#fff"/><path d="M1927.7,400.8l-8.4-103.7-70.4,5.7-4-48.2L2045,238.4l3.9,48.1-70.4,5.8L1987,396Z" transform="translate(0 -44.6)" style="fill:#fff"/><path d="M499.4,170.4c42.1-.3,101.2-.9,103.3,36.8,2.5,43-46.1,56-98.9,59.2s-96.8-.8-105.1-47.2l61.4-3.6c7.4,11.3,23.1,13.4,41.4,12.3s40.5-5.4,39.8-17.1c-.4-6.6-18.7-6.5-42.4-6.2-42,.3-101.1.9-103.2-36.7-2.6-42.9,46-56.1,98.8-59.2s96.8.5,105.2,47.2l-61.4,3.6c-7.5-11.4-23.2-13.3-41.5-12.2s-40.4,5-39.7,17C457.4,170.9,475.7,170.7,499.4,170.4Z" transform="translate(0 -44.6)" style="fill:#ff931e"/><path d="M677.1,252.7,671,150l-69.7,4.1-2.8-47.6,198-11.7,2.8,47.6-69.7,4.1,6.1,102.7Z" transform="translate(0 -44.6)" style="fill:#ff931e"/><path d="M960.9,85c30.9-2.2,58.7,22.3,60.1,53.5a54.2,54.2,0,0,1-7.2,31.2,56,56,0,0,1-22.5,22l35.2,40.3-62.4,3.6-30.4-35-52.4,3.1,2.2,36.7-58.6,3.4L816,93.5Zm-83.7,49,1.5,25.6,71.5-4.2a12.8,12.8,0,0,0,12.1-13.5,12.9,12.9,0,0,0-13.6-12.1Z" transform="translate(0 -44.6)" style="fill:#ff931e"/><path d="M1102.8,76.7l69.7-4.1,89.4,145.6-65.9,3.9-13.4-25-75.3,4.4L1097,227.9l-66,3.9Zm19.4,87.1,41.2-2.4-23.2-43.2Z" transform="translate(0 -44.6)" style="fill:#ff931e"/><path d="M1338.2,62.9l69.7-4.1,89.5,145.5-66,3.9-13.4-25-75.3,4.4L1332.4,214l-66,3.9Zm19.4,87,41.2-2.4-23.2-43.2Z" transform="translate(0 -44.6)" style="fill:#ff931e"/><path d="M1528.1,202.5,1522,99.8l-69.6,4.1-2.8-47.6,197.9-11.7,2.8,47.7-69.7,4.1,6.1,102.6Z" transform="translate(0 -44.6)" style="fill:#ff931e"/></svg>